<svg id="Layer_1" data-name="Layer 1" xmlns="http://www.w3.org/2000/svg" viewBox="0 0 197.59 55.3"><defs><style>.cls-1{fill:#fff;}.cls-2{fill:#ff2400;}.cls-3{fill:#0687fc;}</style></defs><path class="cls-1" d="M20.81,43.8a11.5,11.5,0,0,1,11.5-11.5h133a11.5,11.5,0,0,1,0,23h-133A11.5,11.5,0,0,1,20.81,43.8Z"/><path d="M73.39,48l.15,0a.36.36,0,0,1,.15.1l.86.91a3.64,3.64,0,0,1-1.42,1.12,5.11,5.11,0,0,1-2,.37,4.9,4.9,0,0,1-1.92-.36,4.33,4.33,0,0,1-1.43-1,4.54,4.54,0,0,1-.9-1.52,5.67,5.67,0,0,1-.32-1.91,5.47,5.47,0,0,1,.34-1.93,4.53,4.53,0,0,1,1-1.51,4.19,4.19,0,0,1,1.48-1,4.91,4.91,0,0,1,1.9-.36,4.49,4.49,0,0,1,1,.1,4,4,0,0,1,.87.26,3.79,3.79,0,0,1,1.35.89l-.73,1a.91.91,0,0,1-.17.17.41.41,0,0,1-.27.07.59.59,0,0,1-.22,0l-.21-.12-.26-.16a1.27,1.27,0,0,0-.33-.16,1.64,1.64,0,0,0-.44-.13,2.65,2.65,0,0,0-.59,0,2.35,2.35,0,0,0-1,.2,2.15,2.15,0,0,0-.77.58,2.8,2.8,0,0,0-.5.94,4.44,4.44,0,0,0-.17,1.27A3.91,3.91,0,0,0,69,47a2.85,2.85,0,0,0,.53.94,2.25,2.25,0,0,0,.8.58,2.39,2.39,0,0,0,1,.2,4.39,4.39,0,0,0,.54,0,3.12,3.12,0,0,0,.46-.09,2.87,2.87,0,0,0,.4-.18,4.28,4.28,0,0,0,.38-.29.54.54,0,0,1,.16-.1A.41.41,0,0,1,73.39,48Zm10.28-1.16-.87-2.56c-.06-.17-.13-.36-.2-.58s-.15-.46-.22-.72c-.07.27-.14.51-.21.73s-.14.42-.2.58l-.87,2.55Zm3.45,3.59H85.44a.81.81,0,0,1-.46-.13,1,1,0,0,1-.26-.34l-.55-1.64H80.6L80.05,50a.71.71,0,0,1-.26.32.68.68,0,0,1-.45.15h-1.7L81.27,41H83.5ZM96.26,43a1,1,0,0,1-.21.23.46.46,0,0,1-.27.08.68.68,0,0,1-.32-.09L95.07,43a3.31,3.31,0,0,0-.49-.2,1.74,1.74,0,0,0-.63-.1,1.34,1.34,0,0,0-.91.27.87.87,0,0,0-.3.7.66.66,0,0,0,.18.47,1.69,1.69,0,0,0,.47.32,6.34,6.34,0,0,0,.67.25c.26.07.51.16.77.25a6.56,6.56,0,0,1,.77.32,2.48,2.48,0,0,1,.67.48,2.12,2.12,0,0,1,.48.71,2.43,2.43,0,0,1,.18,1,3.27,3.27,0,0,1-.23,1.22,2.87,2.87,0,0,1-.66,1,2.94,2.94,0,0,1-1.05.66,4,4,0,0,1-1.42.24,4.73,4.73,0,0,1-.9-.09,6.22,6.22,0,0,1-.87-.25,5.39,5.39,0,0,1-.8-.39,3.33,3.33,0,0,1-.65-.51l.65-1a.47.47,0,0,1,.19-.18.57.57,0,0,1,.28-.08.74.74,0,0,1,.39.12l.44.27a3.77,3.77,0,0,0,.57.27,2.2,2.2,0,0,0,.76.12,1.46,1.46,0,0,0,.92-.25,1,1,0,0,0,.33-.83.8.8,0,0,0-.18-.54,1.47,1.47,0,0,0-.48-.34,3.39,3.39,0,0,0-.66-.23l-.76-.23a6.51,6.51,0,0,1-.77-.31,2.42,2.42,0,0,1-.67-.48,2.34,2.34,0,0,1-.47-.75,3,3,0,0,1-.18-1.1,2.64,2.64,0,0,1,.21-1,2.77,2.77,0,0,1,.63-.9,2.92,2.92,0,0,1,1-.62,3.64,3.64,0,0,1,1.37-.24,5.57,5.57,0,0,1,.83.07,4.45,4.45,0,0,1,.78.2,3.55,3.55,0,0,1,.68.32,2.74,2.74,0,0,1,.58.41Zm7.34,7.47h-2.18V41h2.18ZM116.81,41v9.38h-1.13a1.1,1.1,0,0,1-.43-.08,1.17,1.17,0,0,1-.33-.28l-4.42-5.59a4,4,0,0,1,0,.49c0,.15,0,.3,0,.43v5h-1.91V41h1.14l.24,0a.48.48,0,0,1,.17,0,.36.36,0,0,1,.15.1,1.36,1.36,0,0,1,.16.17L115,47c0-.18,0-.36,0-.52s0-.34,0-.49V41ZM131,45.73a5.16,5.16,0,0,1-.35,1.89,4.59,4.59,0,0,1-1,1.52,4.34,4.34,0,0,1-1.54,1,5,5,0,0,1-2,.37,5.16,5.16,0,0,1-2-.37,4.53,4.53,0,0,1-1.54-1,4.76,4.76,0,0,1-1-1.52,5.16,5.16,0,0,1-.35-1.89,5.08,5.08,0,0,1,.35-1.89,4.65,4.65,0,0,1,1-1.52,4.53,4.53,0,0,1,1.54-1,5.54,5.54,0,0,1,4,0,4.46,4.46,0,0,1,2.53,2.53A5.12,5.12,0,0,1,131,45.73Zm-2.23,0a4,4,0,0,0-.18-1.25,2.64,2.64,0,0,0-.52-.95,2.24,2.24,0,0,0-.82-.59,2.82,2.82,0,0,0-1.11-.2,2.88,2.88,0,0,0-1.13.2,2.46,2.46,0,0,0-.83.59,2.79,2.79,0,0,0-.51.95,4,4,0,0,0-.18,1.25,4.17,4.17,0,0,0,.18,1.26,2.74,2.74,0,0,0,.51.94,2.46,2.46,0,0,0,.83.59,3.08,3.08,0,0,0,1.13.2,3,3,0,0,0,1.11-.2,2.24,2.24,0,0,0,.82-.59,2.6,2.6,0,0,0,.52-.94A4.17,4.17,0,0,0,128.81,45.73Z"/><path class="cls-2" d="M126.7,50.67a5.48,5.48,0,1,0-5.4-5.47A5.44,5.44,0,0,0,126.7,50.67Z"/><path class="cls-3" d="M151.48,27.81a1.54,1.54,0,0,0-1.42-.94h-4.69V22.18a1.52,1.52,0,0,0-2.61-1.08l-6.11,6.21a1.54,1.54,0,0,0-.45,1.09v5.48L125.84,44.24a1.51,1.51,0,0,0-.51,1.14,1.52,1.52,0,0,0,1.53,1.53,1.78,1.78,0,0,0,1.17-.54L138.36,36h5.48a1.5,1.5,0,0,0,1.08-.45l6.22-6.11A1.55,1.55,0,0,0,151.48,27.81Z"/><g id="Layer_1-2" data-name="Layer 1-2"><path class="cls-1" d="M4.18,8.33h17.6V12H4.18v8.37H0V0H23.75V3.63H4.18Z"/><path class="cls-1" d="M55,20.33V0h3.48L74.86,14.52V0h4.19V20.33H75.6L59.14,5.8V20.33Z"/><path class="cls-1" d="M101.12,0c4.38,0,7.93,3.08,7.93,6.88s-3.58,6.8-7.9,6.8H88.64v6.65H84.45V0ZM88.65,10.05h12.52a3.49,3.49,0,0,0,3.67-3.17,3.51,3.51,0,0,0-3.71-3.25H88.65Z"/><path class="cls-1" d="M117,8.33h17.63V12H117v4.73h19.57v3.63H112.86V0h23.75V3.63H117Z"/><path class="cls-1" d="M161.5,6a2.64,2.64,0,0,0-2.75-2.36H147.24A2.6,2.6,0,0,0,144.49,6a2.56,2.56,0,0,0,2.71,2.35h11.54c3.78,0,6.89,2.74,6.89,6s-3.08,6-6.89,6H147.23c-3.79,0-6.93-2.67-6.93-6h4.18a2.56,2.56,0,0,0,2.71,2.36H158.7a2.56,2.56,0,0,0,2.75-2.38A2.55,2.55,0,0,0,158.74,12H147.2a7.49,7.49,0,0,1-4.79-1.68l-.17-.14A5.6,5.6,0,0,1,140.31,6c0-3.28,3.11-6,6.89-6h11.54c3.78,0,6.89,2.67,6.89,6H161.5Z"/><path class="cls-1" d="M38.2,0H34.79Q28.06,10.15,21.34,20.33h4.82l2.61-4h0l3.48-5.24.41-.62L36.5,4.7l5.32,8.05h0l2.37,3.6h0l2.61,4h4.85C47.16,13.56,42.65,6.77,38.2,0Z"/><path class="cls-1" d="M184.14,0h-3.41L167.29,20.33h4.81l2.61-4h0l3.49-5.24.41-.62,3.83-5.81,5.32,8.05h0l2.37,3.6h0l2.61,4h4.85C193.11,13.56,188.6,6.77,184.14,0Z"/></g></svg>