<svg width="112" height="99" viewBox="0 0 112 99" fill="none" xmlns="http://www.w3.org/2000/svg">
<g clip-path="url(#clip0_459_16751)">
<path d="M37.2103 64.7295L33.9074 77.9113C33.6086 79.0015 32.9524 79.9585 32.0448 80.6275C31.1808 81.3407 30.1006 81.737 28.9824 81.751L33.2557 64.7155H27.97L27.4106 67.2996L23.1736 84.3351H28.3139C30.8217 84.3351 33.2054 83.4035 35.4651 81.5403C37.7249 79.6772 39.1689 77.4881 39.7973 74.9733L41.7074 67.3024L42.3535 64.7183H37.2103V64.7295Z" fill="#E50539"/>
<path d="M46.6352 79.8381C46.6474 79.7724 46.6642 79.7077 46.6855 79.6443C46.7047 79.5939 46.7206 79.5423 46.7331 79.4898L50.4108 64.7323H41.8808L41.2319 67.3164H44.6411L41.6011 79.487C41.5483 79.6383 41.5108 79.7945 41.4892 79.9533C41.2692 81.2884 41.6076 82.3483 42.5044 83.1329C43.4013 83.9175 44.7316 84.3089 46.4954 84.307H47.2616L47.9161 81.7229C46.8813 81.574 46.4562 80.942 46.6352 79.8381ZM51.4567 56.6793C51.2484 56.4272 50.9853 56.2264 50.6876 56.0925C50.3899 55.9586 50.0655 55.8951 49.7395 55.9069C49.0148 55.9149 48.3182 56.1898 47.7818 56.6793C47.2159 57.1458 46.8374 57.8024 46.7163 58.5276C46.6456 58.8567 46.6504 59.1977 46.7303 59.5248C46.8103 59.8518 46.9633 60.1563 47.1777 60.4151C47.3846 60.6675 47.6467 60.8685 47.9436 61.0024C48.2404 61.1364 48.5641 61.1998 48.8893 61.1875C49.6227 61.182 50.3273 60.9004 50.8638 60.3982C51.431 59.9224 51.8108 59.2592 51.935 58.5276C51.9983 58.2032 51.9882 57.8687 51.9054 57.5488C51.8226 57.2288 51.6693 56.9317 51.4567 56.6793Z" fill="#E50539"/>
<path d="M65.5914 80.3101C65.6013 80.2569 65.6172 80.2051 65.6389 80.1556C65.6589 80.1069 65.6729 80.056 65.6808 80.0039L69.4788 64.7407H60.6188C58.7859 64.7372 56.9935 65.2819 55.47 66.3053C53.8778 67.337 52.8905 68.6347 52.5083 70.1983L50.366 78.8326C50.3102 78.9949 50.2709 79.1624 50.2486 79.3326C50.1141 79.9853 50.16 80.6624 50.3813 81.2908C50.6027 81.9191 50.991 82.4746 51.5043 82.897C52.5801 83.8333 53.9878 84.3014 55.7273 84.3014H56.5328C58.0773 84.2879 59.5677 83.7279 60.7418 82.7201C61.3907 83.7743 62.6091 84.3014 64.3971 84.3014H66.2122L66.8611 81.7173C65.8692 81.6705 65.4459 81.2014 65.5914 80.3101ZM60.8062 78.8467C60.5873 79.6603 60.1064 80.3783 59.4386 80.8887C58.8122 81.4209 58.0216 81.7186 57.2012 81.7313C55.7189 81.7313 55.0953 81.0151 55.3274 79.5714C55.3274 79.5489 55.3498 79.4843 55.3777 79.3804C55.4008 79.3038 55.4194 79.2259 55.4337 79.1472L57.8976 69.2433C58.2332 67.9606 58.9389 67.3183 60.0147 67.3164H63.6952L60.8062 78.8467Z" fill="#E50539"/>
<path d="M94.459 66.1367C93.3963 65.2004 91.9979 64.7323 90.2639 64.7323H89.4585C87.6086 64.7185 85.7983 65.27 84.2678 66.3137C82.7016 67.3679 81.7293 68.6647 81.3508 70.2039L79.1694 78.8382C79.1157 79.0011 79.0764 79.1684 79.0519 79.3382C78.8114 80.8026 79.23 81.9972 80.3076 82.9223C81.3853 83.8473 82.806 84.3098 84.5698 84.3098H85.3361C87.1821 84.3156 88.9864 83.7583 90.5101 82.7116C92.093 81.6443 93.0718 80.3531 93.4466 78.8382L95.6085 70.1983L95.6896 69.7011C95.8242 69.0508 95.7808 68.3759 95.5642 67.7483C95.3475 67.1207 94.9656 66.5638 94.459 66.1367ZM90.5436 69.7882L90.4653 70.1983L88.3286 78.8326C88.164 79.6369 87.7762 80.3779 87.2099 80.9701C87.0025 81.195 86.753 81.3764 86.4756 81.5042C86.1982 81.6319 85.8984 81.7034 85.5934 81.7145C85.3522 81.721 85.1141 81.6591 84.9064 81.5359C84.6986 81.4127 84.5296 81.2331 84.4188 81.0179C84.1367 80.4737 84.0555 79.8469 84.1895 79.2483C84.2027 79.1768 84.2214 79.1064 84.2454 79.0377C84.2659 78.9684 84.2827 78.8981 84.2957 78.827L86.4352 70.1983C86.6092 69.4318 86.9761 68.7229 87.5008 68.1394C87.7081 67.8951 87.9652 67.6983 88.2546 67.5621C88.5441 67.426 88.8592 67.3537 89.1788 67.3501C89.4115 67.34 89.6424 67.3937 89.8469 67.5056C90.0514 67.6174 90.2217 67.7832 90.3395 67.9849C90.5912 68.4119 90.6639 69.0102 90.5436 69.777V69.7882Z" fill="#E50539"/>
<path d="M110.277 64.7295C108.354 64.6823 106.467 65.2639 104.902 66.3867L105.288 64.7295H100.17L95.2588 84.307H100.402L103.073 73.5969C103.446 72.2282 104.136 70.9674 105.086 69.9174C105.977 68.8435 107.135 68.0256 108.443 67.5467L107.833 70.0915H110.63L112 64.7323H110.274L110.277 64.7295Z" fill="#E50539"/>
<path d="M23.8866 57.3676C22.712 56.3957 21.1272 55.9079 19.1322 55.9042C17.0955 55.8658 15.0932 56.4358 13.3794 57.5417C11.8005 58.5165 10.6657 60.0748 10.2191 61.8814L8.08241 70.3921C6.27853 70.3921 4.6061 70.3921 3.30842 70.3921C2.87176 70.3932 2.43961 70.4808 2.03672 70.6499C1.63383 70.819 1.26812 71.0663 0.960523 71.3776C0.652929 71.6888 0.409498 72.058 0.244181 72.4639C0.0788641 72.8698 -0.00509581 73.3045 -0.00288722 73.743H7.23781L4.59771 84.2986H9.69612L12.3446 73.743H16.99L15.3455 80.3101C15.2902 80.4723 15.2517 80.6399 15.2308 80.8101C15.049 81.9167 15.2644 82.7762 15.8852 83.3942C16.5061 84.0121 17.4318 84.3155 18.682 84.3155H20.718L21.3724 81.7313C20.6369 81.6808 20.3292 81.2819 20.4551 80.5432L25.1004 61.8814C25.116 61.777 25.1384 61.6738 25.1675 61.5724C25.1962 61.469 25.2186 61.3639 25.2347 61.2578C25.505 59.6455 25.0557 58.3488 23.8866 57.3676ZM13.1529 70.4511V70.3921L15.5105 61.1482C15.6634 60.4101 16.0464 59.7401 16.604 59.2354C17.1108 58.7572 17.7796 58.4902 18.475 58.4883C18.7495 58.468 19.0246 58.5177 19.2749 58.6326C19.5252 58.7474 19.7425 58.9239 19.9069 59.1455C20.0654 59.3868 20.1742 59.6574 20.2271 59.9415C20.2799 60.2257 20.2757 60.5175 20.2146 60.8L20.1558 61.1482L17.7982 70.3921L17.7814 70.4511H13.1529Z" fill="#E50539"/>
<path d="M79.0183 64.7295L80.1957 60.1848H75.0414L73.9227 64.7295H71.4056L70.7512 67.3136H73.2682L70.1919 79.5292C70.1919 79.5817 70.1704 79.6753 70.1275 79.8101C70.102 79.9025 70.0814 79.9963 70.066 80.091C69.8516 81.4018 70.1042 82.4317 70.8239 83.1807C71.5436 83.9297 72.6334 84.3042 74.0933 84.3042H75.9L76.56 81.6864C75.5028 81.5872 75.0647 80.9842 75.2455 79.8775C75.2573 79.8117 75.2741 79.7469 75.2959 79.6837C75.3182 79.6051 75.335 79.5573 75.3378 79.5292L78.4142 67.3136H80.604L81.2585 64.7295H79.0211H79.0183Z" fill="#E50539"/>
<path d="M74.6666 29.8663L63.3372 27.6586L74.6638 23.0886L76.8844 25.6812L74.6666 29.8663Z" fill="#E50539"/>
<path d="M89.632 24.0155C88.2784 21.0409 87.2856 18.4989 86.9304 17.8894C85.8956 16.1311 84.3546 16.2266 83.0317 16.4569C79.5051 17.0664 78.1291 17.69 71.912 19.35C70.9975 19.6028 69.2719 20.1112 68.321 19.7798C65.804 18.9146 65.0405 18.2209 63.8323 18.3585C61.9613 18.5748 58.1158 20.3893 53.9403 23.4537C52.6343 24.3975 52.7853 25.5266 52.542 26.2625C52.5306 26.2998 52.5276 26.3391 52.5331 26.3776C52.5387 26.4161 52.5527 26.453 52.574 26.4854C52.5954 26.5179 52.6237 26.5453 52.6568 26.5655C52.69 26.5857 52.7271 26.5983 52.7657 26.6024C53.3726 26.6642 59.998 27.2428 60.3 27.2849C60.2549 27.2614 60.2169 27.226 60.1903 27.1824C60.1637 27.1389 60.1494 27.0889 60.149 27.0378C60.1481 26.9911 60.1605 26.9451 60.1848 26.9053C60.2091 26.8655 60.2442 26.8334 60.2861 26.8131C62.1766 25.7906 69.0454 22.1364 73.1929 20.4932C78.8674 18.2321 80.2378 17.9905 81.9606 17.8276C82.42 17.8019 82.8807 17.8075 83.3394 17.8445C83.5005 17.8545 83.6553 17.9109 83.7853 18.0071C83.9153 18.1032 84.0148 18.235 84.0721 18.3866C84.8552 20.6954 87.1485 25.9114 88.3623 27.6389C88.2996 27.753 88.2114 27.8509 88.1046 27.925C87.9979 27.9991 87.8755 28.0473 87.747 28.0658C87.4282 28.0658 86.7793 27.4675 86.3766 27.1108C86.3318 27.0752 86.2773 27.0543 86.2203 27.0508C86.1633 27.0472 86.1066 27.0613 86.0578 27.0911C79.2534 31.3044 74.3479 33.1414 73.6404 33.3941C73.612 33.406 73.5816 33.4122 73.5509 33.4122C73.5202 33.4122 73.4897 33.406 73.4614 33.3941L69.9851 32.0937C70.1743 31.8644 70.328 31.6078 70.4409 31.3325C70.5037 31.1959 70.537 31.0475 70.5388 30.8971C70.5136 30.3353 69.9795 30.2146 69.739 30.1837C68.8132 30.0685 43.9756 26.3889 37.7473 25.7738C35.1045 25.4929 32.5902 26.8664 31.5023 28.3017V28.3383L35.0289 32.0291C35.066 32.0696 35.1151 32.0973 35.1689 32.1079C35.2228 32.1185 35.2786 32.1115 35.3282 32.088L38.1025 30.8044C38.1025 30.8044 38.4829 31.9841 38.1277 32.1835C35.8232 33.4531 33.5914 34.5879 31.4324 35.7255C30.5654 36.1861 30.5934 37.0569 30.3137 38.2815C30.1962 38.7927 30.1347 39.2618 30.1347 39.2618C30.1347 39.2618 34.973 36.8265 37.9375 35.4053C37.9881 35.3844 38.0437 35.3788 38.0973 35.3893C38.151 35.3998 38.2005 35.4258 38.2396 35.4643C38.6619 35.9221 38.7989 36.026 39.0786 36.3069C39.1074 36.336 39.1291 36.3715 39.1419 36.4105C39.1547 36.4495 39.1582 36.491 39.1522 36.5317C39.1463 36.5723 39.1309 36.611 39.1075 36.6446C39.084 36.6782 39.053 36.7059 39.0171 36.7254C38.3179 37.099 37.5963 37.481 37.0426 37.8124C36.6035 38.0737 37.0426 38.9528 37.0426 38.9528L45.0943 35.1216C45.0943 35.1216 45.5949 35.6187 44.7084 36.1721C43.3352 37.0372 30.6353 43.5396 29.5446 43.5677C26.664 43.6408 21.23 38.1972 19.2667 37.3686C17.611 36.6692 15.8267 37.8096 13.4075 39.2365C12.7503 39.6298 13.1502 40.5791 13.1502 40.5791L16.6573 38.7955C16.6573 38.7955 17.0908 39.2983 16.6042 39.6045C14.9066 40.6859 12.4511 41.7673 12.0735 42.0397C11.5142 42.4386 11.7323 44.3065 11.7323 44.3065L15.0492 42.7616C15.0932 42.7395 15.1422 42.7294 15.1913 42.7323C15.2404 42.7353 15.2879 42.7512 15.3289 42.7785L22.4381 49.5758C22.8893 49.4658 23.3301 49.3163 23.7554 49.1292L17.8236 42.7953C17.7982 42.7641 17.7798 42.7277 17.7696 42.6888C17.7595 42.6498 17.7578 42.6091 17.7647 42.5694C17.7716 42.5297 17.7869 42.4919 17.8096 42.4587C17.8323 42.4254 17.8619 42.3975 17.8963 42.3768C18.5032 42.0678 19.2275 41.8403 20.2539 42.6296C21.1153 43.2868 24.1301 45.7361 27.0471 45.4749C28.0204 45.3907 28.0344 45.6912 28.0344 45.6912C28.0344 45.6912 26.7954 46.2895 25.3271 47.0956C24.6 47.5001 25.1901 48.5646 25.1901 48.5646C32.7049 45.4749 41.9704 41.6156 43.2569 41.0538C43.3025 41.0345 43.3525 41.0277 43.4016 41.0341C43.4508 41.0405 43.4973 41.0599 43.5365 41.0903L45.7096 42.8234C46.0172 43.3065 61.4747 37.3377 66.2403 34.9193C66.5199 34.7873 68.9307 34.8997 70.1025 34.8884C70.6395 34.8884 70.6199 35.1244 70.6199 35.1244C70.6199 35.1244 31.9442 50.6095 22.4549 50.2556H22.4381L20.4161 51.1263C21.6019 51.9128 21.3195 53.2722 23.3387 52.2217C23.4589 52.5026 23.5988 52.7835 23.747 53.1093C24.1385 53.952 24.1385 53.9688 26.7059 53.0925C33.9774 50.6263 66.6094 40.8263 73.92 37.7872C78.048 36.0766 83.7561 33.7144 87.3135 31.501C90.8234 29.3326 91.5393 28.209 89.632 24.0155ZM58.4011 24.1671C57.962 24.4817 55.0702 23.9396 55.0702 23.9396C55.0702 23.9396 58.2696 21.083 61.3153 20.7179C62.2214 20.6084 64.0532 21.3218 64.0532 21.3218C64.0532 21.3218 59.9672 23.0352 58.4011 24.1671ZM68.1057 21.3246L63.9749 23.4537C63.9749 23.4537 63.0185 22.8723 64.0952 22.3835C64.3749 22.2571 65.0041 21.8948 65.5159 21.628C65.5792 21.5944 65.6316 21.5433 65.667 21.4808C65.7023 21.4182 65.719 21.3468 65.7152 21.275C65.7114 21.2032 65.6871 21.134 65.6454 21.0756C65.6036 21.0172 65.5461 20.972 65.4796 20.9454L62.4172 19.7123C62.7072 19.4807 63.0475 19.321 63.4105 19.2463C63.7735 19.1717 64.149 19.1841 64.5063 19.2826C64.951 19.4202 66.8108 20.2067 68.033 20.7207C68.0976 20.7354 68.1562 20.7699 68.2006 20.8193C68.245 20.8688 68.2731 20.9308 68.2811 20.9969C68.2891 21.0631 68.2765 21.13 68.2451 21.1887C68.2137 21.2473 68.165 21.2948 68.1057 21.3246ZM69.1349 31.3606C68.7321 31.9588 67.7925 33.0711 66.4109 32.8464C65.7369 32.7313 38.3067 27.1417 38.2396 27.1361C38.0466 27.0827 38.0718 26.6698 38.4214 26.7119L68.9531 30.9477C68.997 30.9568 69.038 30.9764 69.0728 31.0049C69.1075 31.0333 69.1349 31.0697 69.1528 31.111C69.1706 31.1523 69.1783 31.1973 69.1751 31.2422C69.172 31.2871 69.1582 31.3306 69.1349 31.369V31.3606Z" fill="#E50539"/>
<path d="M88.9579 18.7966C88.9294 18.8007 88.9013 18.8073 88.874 18.8163C88.8468 18.8272 88.8221 18.8434 88.8013 18.864L89.0809 18.791L88.9579 18.7966Z" fill="#E50539"/>
<path d="M100.234 39.509C100.005 38.5849 98.3212 32.4617 97.3508 30.2146L92.918 22.2263C92.4988 22.8092 92.031 23.3551 91.5196 23.8582C91.4343 23.9321 91.3404 23.9952 91.2399 24.0464C91.1076 24.1012 90.9663 24.1307 90.8232 24.1335L93.2116 31.9982C93.5668 33.2622 94.3975 34.338 95.1134 35.4306C95.4742 35.9699 98.0136 39.7759 98.9897 41.2365C99.0367 41.3072 99.1003 41.3651 99.1749 41.4052C99.2496 41.4452 99.3329 41.4662 99.4175 41.4662C99.5022 41.4662 99.5855 41.4452 99.6602 41.4052C99.7348 41.3651 99.7984 41.3072 99.8454 41.2365C100.021 40.9888 100.146 40.7085 100.212 40.4119C100.279 40.1154 100.287 39.8085 100.234 39.509ZM99.3672 40.6017L99.3141 40.6859L99.2553 40.6017C99.219 40.5483 95.6336 35.248 94.3387 33.1948C93.9472 32.5769 94.4058 32.2651 94.4058 32.2651L94.459 32.2342L94.4953 32.2819C94.6771 32.5122 98.9057 38.0456 99.4539 39.0624C99.5733 39.3046 99.628 39.5738 99.6129 39.8436C99.5977 40.1134 99.513 40.3746 99.3672 40.6017Z" fill="#E50539"/>
<path d="M88.4713 9.90952C87.9847 8.25512 87.1541 7.18496 86.4325 6.08951C86.0717 5.52775 83.4316 1.59539 82.5031 0.190971C82.4631 0.130131 82.4087 0.0802043 82.3448 0.0456625C82.2808 0.0111208 82.2094 -0.00695801 82.1368 -0.00695801C82.0642 -0.00695801 81.9927 0.0111208 81.9288 0.0456625C81.8648 0.0802043 81.8104 0.130131 81.7704 0.190971C81.5815 0.459023 81.4484 0.762646 81.3792 1.08362C81.31 1.4046 81.3061 1.73631 81.3677 2.05884C81.6026 2.97733 83.2275 9.08092 84.2007 11.328L88.2448 18.4821C88.3458 18.3636 88.4707 18.2678 88.6112 18.2012C88.707 18.1598 88.8091 18.1351 88.9132 18.1282C89.4474 18.0916 90.2836 18.0973 91.0387 18.1113L88.4713 9.90952ZM87.1653 9.34775L87.1121 9.37865L87.0758 9.3309C86.8968 9.09496 82.6765 3.56718 82.1172 2.54477C82.0014 2.30174 81.9494 2.03304 81.966 1.76415C81.9827 1.49526 82.0674 1.23509 82.2123 1.00834L82.2654 0.929692L82.3241 1.00834C82.3605 1.06732 85.9599 6.3732 87.2408 8.41803C87.6295 9.04721 87.1708 9.35056 87.1653 9.35618V9.34775Z" fill="#E50539"/>
<path d="M93.4885 18.7967C92.3866 18.5495 90.3002 18.5354 89.0529 18.6141C89.0072 18.6114 88.9615 18.6114 88.9158 18.6141C88.8856 18.6188 88.8557 18.6253 88.8263 18.6338C88.7968 18.6459 88.7702 18.6641 88.748 18.6871C88.6755 18.7379 88.6205 18.81 88.5904 18.8935C88.5604 18.977 88.5568 19.0678 88.5802 19.1534C89.2067 20.7432 89.7604 21.9763 90.4876 23.4256C90.549 23.5119 90.639 23.5735 90.7415 23.5992C90.844 23.6249 90.9523 23.6132 91.0469 23.5661C91.0878 23.5461 91.1262 23.5216 91.1616 23.493C92.2932 22.4048 93.2099 21.1116 93.8632 19.6814C94.0674 19.2405 93.9471 18.8922 93.4885 18.7967ZM89.8667 20.9482L89.2291 19.4736C89.2133 19.4423 89.2046 19.4079 89.2035 19.3729C89.2025 19.3378 89.2091 19.303 89.223 19.2708C89.2369 19.2386 89.2577 19.2099 89.2838 19.1867C89.31 19.1635 89.341 19.1464 89.3745 19.1365C89.3957 19.1252 89.4182 19.1168 89.4416 19.1113C89.4416 19.1113 92.0817 19.0158 92.9067 19.1787C93.3458 19.2685 93.3626 19.4258 93.3626 19.4258L89.8667 20.9482Z" fill="#E50539"/>
<path d="M80.0475 19.1984C80.0475 19.1984 79.5497 21.2685 78.7638 23.656L77.3095 21.8106L76.1321 22.3499L78.2744 25.0744C77.6059 26.9114 76.8005 28.74 75.9419 29.8186L78.0898 28.8383C78.5792 28.3832 78.9735 27.4619 79.2812 26.3553L80.4614 27.8552L81.6472 27.3131L79.6448 24.7851C80.081 22.4791 80.1957 19.982 80.0475 19.1984Z" fill="#E50539"/>
<path d="M71.3749 90.6663H40.6278C39.8556 90.6663 39.2295 91.295 39.2295 92.0707C39.2295 92.8463 39.8556 93.4751 40.6278 93.4751H71.3749C72.1472 93.4751 72.7733 92.8463 72.7733 92.0707C72.7733 91.295 72.1472 90.6663 71.3749 90.6663Z" fill="#E50539"/>
<path d="M65.7816 96.1912H46.2214C45.4491 96.1912 44.823 96.8199 44.823 97.5956C44.823 98.3712 45.4491 99 46.2214 99H65.7816C66.5539 99 67.1799 98.3712 67.1799 97.5956C67.1799 96.8199 66.5539 96.1912 65.7816 96.1912Z" fill="#E50539"/>
</g>
<defs>
<clipPath id="clip0_459_16751">
<rect width="112" height="99" fill="white"/>
</clipPath>
</defs>
</svg>
